<svg xmlns="http://www.w3.org/2000/svg" width="199.246" height="40.019" viewBox="104 55 199.246 40.019"><g data-name="Group 13"><path d="M156.738 83.711h10.43v-3.568h-6.22v-11.99h-4.21v15.558Z" fill="#3185c6" fill-rule="evenodd" data-name="Path 26"/><path d="M292.533 83.711h10.713v-3.568h-6.502v-11.99h-4.21v15.558Z" fill="#3185c6" fill-rule="evenodd" data-name="Path 27"/><g data-name="Group 11"><g data-name="Group 9"><path d="M117.29 95.019c-1.93-.079-7.158-1.756-7.158-7.755v-7.148c.097-3.801-1.556-4.183-1.816-5.15-.35-1.298 3.009-1.606 3.73-6.558l.449-5.284c.272-5.049 2.709-8.305 8.363-8.116v3.573c-2.352.004-5 1.092-5.274 3.77l-.575 6.855c-.214 3.705-3.08 5.887-3.08 5.887s1.813 1.814 1.692 5.308l-.015 5.912c0 3.461 2.383 4.839 3.685 4.9v3.806Z" fill="#3185c6" fill-rule="evenodd" data-name="Path 28"/></g><g data-name="Group 10"><path d="M139.135 91.212c1.3-.06 3.684-1.438 3.684-4.899l-.016-5.912c-.121-3.494 1.693-5.308 1.693-5.308s-2.867-2.182-3.08-5.887l-.576-6.855c-.274-2.678-2.92-3.766-5.273-3.77v-3.573c5.653-.189 8.09 3.067 8.362 8.116l.45 5.284c.72 4.952 4.08 5.26 3.73 6.559-.26.966-1.913 1.348-1.815 5.15v7.147c0 6-5.23 7.676-7.16 7.755v-3.807Z" fill="#3185c6" fill-rule="evenodd" data-name="Path 29"/></g></g><path d="M123.699 78.266a4.513 4.513 0 1 1 0 .1z" fill="#3185c6" fill-rule="evenodd" data-name="Ellipse 2"/><path d="m139.566 84.711-2.512-21.1a3.448 3.448 0 0 0-3.423-3.041h-1.345v-1.95l1.91-.04v-3.572h-11.969v3.573l1.91.04v1.949h-1.343a3.448 3.448 0 0 0-3.424 3.04l-2.511 21.101a4.078 4.078 0 0 0 2.86 4.38l.577.176-.39 1.93h-.876v3.822h18.365v-3.822h-.878l-.39-1.93.579-.175a4.079 4.079 0 0 0 2.86-4.38Zm-5.457 2.238c-.85.26-1.72.426-2.603.53l.315-.044-1.677-2.69h-3.864l-1.676 2.69.147.024a14.672 14.672 0 0 1-2.436-.51c-2.455-.752-3.216-2.04-2.826-4.637l2.106-17.119a2.023 2.023 0 0 1 2.011-1.806h.94v6.775h-.818l.819 1.793h7.33l.82-1.793h-.82v-6.775h.94c1.034 0 1.9.78 2.012 1.806l2.108 17.119c.388 2.598-.373 3.885-2.828 4.637Z" fill="#3185c6" fill-rule="evenodd" data-name="Path 30"/><g data-name="Group 12"><path d="m132.246 76.42 17.352-13.567-.377-.483-17.253 13.489.278.56Z" fill="#3185c6" fill-rule="evenodd" data-name="Path 31"/><path d="m132.38 77.226 18.978-8.917.26.555-18.978 8.917-.26-.555z" fill="#3185c6" fill-rule="evenodd" data-name="Rectangle 16"/><path d="m132.623 78.968 19.801-3.765-.114-.603-19.8 3.766.113.602Z" fill="#3185c6" fill-rule="evenodd" data-name="Path 32"/><path d="m132.246 80.082.044-.611 17.701 1.28-.044.611-17.7-1.28z" fill="#3185c6" fill-rule="evenodd" data-name="Rectangle 17"/><path d="m131.713 80.854.215-.574 16.863 6.325-.215.574-16.863-6.325z" fill="#3185c6" fill-rule="evenodd" data-name="Rectangle 18"/><path d="m130.943 81.722 12.365 9.49.372-.487-12.365-9.49-.372.487Z" fill="#3185c6" fill-rule="evenodd" data-name="Path 33"/><path d="m129.82 82.392 5.115 6.841.492-.366-5.116-6.841-.492.366Z" fill="#3185c6" fill-rule="evenodd" data-name="Path 34"/><path d="m129.052 82.434.84 6.178.606-.083-.84-6.179-.606.084Z" fill="#3185c6" fill-rule="evenodd" data-name="Path 35"/><path d="M127.957 82.658h.613v5.912h-.613v-5.912z" fill="#3185c6" fill-rule="evenodd" data-name="Rectangle 19"/><path d="m125.686 88.518.605.104 1.048-6.126-.605-.104-1.048 6.126Z" fill="#3185c6" fill-rule="evenodd" data-name="Path 36"/><path d="m129.14 74.064.752-5.502.606.083-.75 5.502-.608-.083z" fill="#3185c6" fill-rule="evenodd" data-name="Rectangle 20"/><path d="M127.957 68.604h.613v5.349h-.613v-5.35z" fill="#3185c6" fill-rule="evenodd" data-name="Rectangle 21"/><path d="m125.686 68.656.605-.104.955 5.54-.605.105-.955-5.541z" fill="#3185c6" fill-rule="evenodd" data-name="Rectangle 22"/><path d="m131.696 75.678 13.646-17.917-.489-.37-13.538 17.775.38.512Z" fill="#3185c6" fill-rule="evenodd" data-name="Path 37"/><path d="m130.158 74.38 8.263-17.594.554.26-8.262 17.595-.555-.26z" fill="#3185c6" fill-rule="evenodd" data-name="Rectangle 23"/><path d="M124.456 75.859 107.203 62.37l-.377.483L124.23 76.46l.226-.601Z" fill="#3185c6" fill-rule="evenodd" data-name="Path 38"/><path d="m104.806 68.864.26-.555 18.992 8.917-.26.555-18.992-8.917z" fill="#3185c6" fill-rule="evenodd" data-name="Rectangle 24"/><path d="m104 75.202.114-.602 19.839 3.766-.114.602L104 75.202z" fill="#3185c6" fill-rule="evenodd" data-name="Rectangle 25"/><path d="m106.433 80.751 17.662-1.28.044.61-17.662 1.281-.044-.611z" fill="#3185c6" fill-rule="evenodd" data-name="Rectangle 26"/><path d="m124.314 80.34-16.682 6.265.107.283.109.29 16.682-6.263-.216-.574Z" fill="#3185c6" fill-rule="evenodd" data-name="Path 39"/><path d="m112.743 90.725 12.307-9.423.373.486-12.307 9.424-.373-.487z" fill="#3185c6" fill-rule="evenodd" data-name="Rectangle 27"/><path d="m120.997 88.867 5.024-6.737.491.366-5.023 6.737-.492-.366z" fill="#3185c6" fill-rule="evenodd" data-name="Rectangle 28"/><path d="m125.109 75.166-13.327-17.59-.488.37 13.434 17.732.38-.512Z" fill="#3185c6" fill-rule="evenodd" data-name="Path 40"/><path d="m117.449 57.046.554-.26 8.262 17.595-.554.26-8.262-17.595z" fill="#3185c6" fill-rule="evenodd" data-name="Rectangle 29"/></g><path d="M177.228 68.153h-3.901l-5.068 15.558h3.743l1.17-2.964 4.679.001 1.17 2.963h3.743l-5.536-15.558Zm-3.312 9.342 1.24-3.596h.48l1.274 3.596h-2.994Z" fill="#3185c6" fill-rule="evenodd" data-name="Path 41"/><path d="M184.986 83.711V68.154h3.86l5.615 7.778v-7.778h3.743V83.71h-3.743l-5.614-7.23v7.23h-3.86Z" fill="#3185c6" fill-rule="evenodd" data-name="Path 44"/><path d="M243.473 83.711V68.154h3.86l5.615 7.778v-7.778h3.743V83.71h-3.743l-5.615-7.23v7.23h-3.86Z" fill="#3185c6" fill-rule="evenodd" data-name="Path 45"/><path d="M207.874 83.711V71.856h4.913v-3.702h-13.062v3.702h4.718V83.71h3.431Z" fill="#3185c6" fill-rule="evenodd" data-name="Path 46"/><path d="M214.815 68.154V83.71h10.761l-.546-3.56h-6.082v-2.483h4.756l-.545-3.548h-4.211v-2.34h6.628l-.546-3.626h-10.215Z" fill="#3185c6" fill-rule="evenodd" data-name="Path 47"/><path d="M237.595 77.668c1.023-.644 2.427-1.735 2.369-4.357-.092-4.093-3.802-5.048-5.498-5.158-.817-.052-6.317 0-6.317 0v15.558h3.744v-4.834h2.573l2.34 4.834h4.444l-3.655-6.043Zm-3.294-1.918c-.81.126-2.408.011-2.408.011v-4.096s1.15-.102 2.027 0c.994.116 2.07.722 2.076 2.135.005 1.203-.662 1.787-1.695 1.95Z" fill="#3185c6" fill-rule="evenodd" data-name="Path 48"/><path d="M263.358 72.404c.001-2.223 1.847-4.591 5.162-4.591s5.249 1.705 5.249 1.705l-1.91 2.886s-3.276-1.872-3.977-.428c-.703 1.442 2.573 2.546 3.742 3.34 1.17.792 2.808 2.157 2.847 4.262.038 2.106-1.521 4.602-5.556 4.602-4.036 0-5.557-1.6-5.557-1.6l1.794-3.08s4.018 2.365 4.912.43c.702-1.522-2.217-1.938-3.938-3.14-1.637-1.143-2.77-2.085-2.768-4.386Z" fill="#3185c6" fill-rule="evenodd" data-name="Path 49"/><path d="M282.973 67.647c-4.328 0-7.837 3.7-7.837 8.267 0 4.565 3.509 8.266 7.837 8.266 4.329 0 7.837-3.701 7.837-8.266 0-4.567-3.508-8.267-7.837-8.267Zm0 12.945c-1.978 0-3.583-2.095-3.583-4.678 0-2.585 1.605-4.68 3.583-4.68 1.978 0 3.582 2.095 3.582 4.68 0 2.583-1.604 4.678-3.582 4.678Z" fill="#3185c6" fill-rule="evenodd" data-name="Path 50"/></g></svg>